<?xml version="1.0" standalone="no"?>
<!DOCTYPE svg PUBLIC "-//W3C//DTD SVG 20010904//EN"
 "http://www.w3.org/TR/2001/REC-SVG-20010904/DTD/svg10.dtd">
<svg version="1.0" xmlns="http://www.w3.org/2000/svg"
 width="512.000000pt" height="512.000000pt" viewBox="0 0 512.000000 512.000000"
 preserveAspectRatio="xMidYMid meet">
<metadata>
Created by potrace 1.11, written by Peter Selinger 2001-2013
</metadata>
<g transform="translate(0.000000,512.000000) scale(0.100000,-0.100000)"
fill="#000000" stroke="none">
<path d="M386 5109 c-175 -41 -339 -209 -376 -385 -7 -33 -10 -734 -8 -2194
l3 -2145 27 -64 c55 -129 161 -235 288 -288 l65 -28 2175 0 2175 0 65 28 c127
53 233 159 288 288 l27 64 0 2175 0 2175 -28 65 c-53 127 -159 233 -288 288
l-64 27 -2155 2 c-1278 0 -2171 -3 -2194 -8z m1391 -1181 c17 -31 18 -107 21
-1265 l2 -1233 154 0 c184 0 181 1 181 -106 0 -90 -21 -125 -81 -136 -82 -14
-347 -30 -409 -26 -82 7 -105 23 -139 93 l-26 56 -28 -19 c-228 -161 -616
-181 -828 -44 -228 148 -344 428 -344 825 0 289 62 468 219 639 111 120 257
203 424 239 137 30 436 26 521 -7 14 -6 16 33 16 360 l0 366 -170 0 -169 0
-18 33 c-25 47 -24 150 2 176 26 27 106 46 240 60 61 6 124 13 140 15 17 1 85
4 152 5 l122 1 18 -32z m1211 -1000 c29 -37 25 -160 -7 -199 -13 -16 -35 -24
-81 -31 -65 -8 -107 -28 -117 -54 -4 -11 214 -1009 233 -1064 5 -13 6 -13 14
0 5 9 104 281 221 605 116 325 218 597 226 605 9 10 33 15 73 15 40 0 64 -5
74 -15 8 -8 112 -287 231 -620 120 -333 221 -611 225 -619 10 -19 0 -58 149
559 71 294 132 547 136 562 l7 27 -128 3 -129 3 -13 40 c-16 50 -6 137 20 170
l19 25 344 0 343 0 12 -36 c7 -20 10 -65 8 -99 -5 -84 -21 -101 -99 -107 -110
-8 -86 50 -334 -782 -170 -570 -225 -740 -239 -748 -30 -17 -181 -14 -208 4
-17 12 -73 140 -228 527 -112 282 -207 514 -210 516 -3 2 -99 -229 -214 -512
-115 -283 -215 -521 -222 -528 -28 -28 -229 -27 -253 1 -5 5 -99 335 -211 734
-111 399 -207 740 -212 758 l-9 32 -119 0 c-116 0 -120 1 -136 25 -26 39 -16
156 16 190 l23 25 393 0 c301 0 394 -3 402 -12z"/>
<path d="M990 2696 c-161 -43 -271 -161 -332 -356 -21 -68 -23 -93 -23 -265 0
-166 3 -201 23 -275 48 -177 135 -305 244 -355 127 -59 353 -11 511 110 l47
36 0 503 c0 568 9 512 -85 559 -84 42 -151 57 -249 56 -50 0 -111 -6 -136 -13z"/>
</g>
</svg>
